<svg width="600" height="600" viewBox="0 0 600 600" fill="none" xmlns="http://www.w3.org/2000/svg">
<g clip-path="url(#clip0_15_25)">
<path d="M0 120C0 53.7258 53.7258 0 120 0H480C546.274 0 600 53.7258 600 120V480C600 546.274 546.274 600 480 600H120C53.7258 600 0 546.274 0 480V120Z" fill="#9D4753" fill-opacity="0.4"/>
<path d="M120 4.5H480C543.789 4.5 595.5 56.2111 595.5 120V480C595.5 543.789 543.789 595.5 480 595.5H120C56.2111 595.5 4.5 543.789 4.5 480V120C4.5 56.2111 56.2111 4.5 120 4.5Z" stroke="#9D4753" stroke-opacity="0.7" stroke-width="9"/>
<path d="M145.552 523.513L143.21 264.446C143.3 247.879 146.901 231.543 153.775 216.514C160.65 201.486 170.641 188.106 183.091 177.257C195.54 166.408 210.166 158.336 226.003 153.574C241.839 148.812 258.528 147.467 274.969 149.629C291.409 151.79 307.228 157.409 321.383 166.114C335.537 174.82 347.706 186.414 357.086 200.133C366.466 213.852 372.845 229.384 375.803 245.705C378.761 262.027 378.229 278.767 374.244 294.822C390.299 290.836 407.039 290.305 423.36 293.263C439.681 296.22 455.214 302.599 468.933 311.98C482.652 321.36 494.246 333.528 502.951 347.683C511.657 361.837 517.275 377.656 519.437 394.097C521.598 410.537 520.254 427.226 515.492 443.063C510.729 458.9 502.658 473.525 491.809 485.975C480.96 498.425 467.58 508.416 452.551 515.29C437.523 522.164 421.186 525.765 404.619 525.856L145.552 523.513Z" fill="#FCA5A3"/>
<path d="M295.634 77C345.202 77.0002 382.368 103.124 407.12 142.241C431.864 181.345 444.22 233.45 444.22 285.525C444.22 290.007 444.126 294.488 443.943 298.962C437.283 296.449 430.395 294.538 423.36 293.264C407.039 290.306 390.299 290.837 374.245 294.822C378.23 278.767 378.761 262.027 375.803 245.706C372.846 229.385 366.467 213.853 357.086 200.134C347.706 186.415 335.537 174.821 321.382 166.115C307.228 157.41 291.41 151.79 274.969 149.629C258.529 147.467 241.839 148.812 226.002 153.574C210.165 158.336 195.54 166.409 183.09 177.258C170.641 188.107 160.65 201.486 153.776 216.515C146.902 231.543 143.301 247.88 143.21 264.447L145.286 494.051H97.6859V77.3506L97.7679 77.2256L98.1859 77.5C97.7684 77.2255 97.9481 77.0601 98.1849 77H295.634Z" fill="#EF4444" fill-opacity="0.8"/>
<path d="M443.458 298.568C452.657 301.919 460.65 306.317 468.932 311.98C482.651 321.36 494.246 333.53 502.952 347.684C511.657 361.838 517.276 377.657 519.437 394.097C521.599 410.538 520.254 427.227 515.492 443.064C510.73 458.901 502.658 473.526 491.809 485.976C480.96 498.426 467.58 508.416 452.551 515.291C437.523 522.165 421.187 525.766 404.62 525.856L145.552 523.514L145.282 493.551H295.633C390.229 493.551 439.502 398.056 443.458 298.568Z" fill="#9D4753" fill-opacity="0.8"/>
</g>
<defs>
<clipPath id="clip0_15_25">
<rect width="600" height="600" fill="white"/>
</clipPath>
</defs>
</svg>
